<svg id="visual" viewBox="0 0 1366 768" width="1366" height="768" xmlns="http://www.w3.org/2000/svg" xmlns:xlink="http://www.w3.org/1999/xlink" version="1.1"><rect x="0" y="0" width="1366" height="768" fill="#FFFFFF"></rect><defs><linearGradient id="grad1_0" x1="43.8%" y1="0%" x2="100%" y2="100%"><stop offset="14.427083333333334%" stop-color="#ffffff" stop-opacity="1"></stop><stop offset="85.57291666666667%" stop-color="#ffffff" stop-opacity="1"></stop></linearGradient></defs><defs><linearGradient id="grad2_0" x1="0%" y1="0%" x2="56.2%" y2="100%"><stop offset="14.427083333333334%" stop-color="#ffffff" stop-opacity="1"></stop><stop offset="85.57291666666667%" stop-color="#ffffff" stop-opacity="1"></stop></linearGradient></defs><g transform="translate(1366, 0)"><path d="M0 268.8C-37.3 266.9 -74.5 265 -102.9 248.3C-131.2 231.7 -150.6 200.3 -174.7 174.7C-198.7 149 -227.4 129.2 -243.9 101C-260.4 72.9 -264.6 36.4 -268.8 0L0 0Z" fill="#b0a4da"></path></g><g transform="translate(0, 768)"><path d="M0 -268.8C36.6 -265.4 73.3 -261.9 101.8 -245.8C130.3 -229.6 150.6 -200.6 176.1 -176.1C201.5 -151.5 232 -131.5 248.3 -102.9C264.6 -74.3 266.7 -37.1 268.8 0L0 0Z" fill="#b0a4da"></path></g></svg>