<svg id="visual" viewBox="0 0 1450 768" width="1450" height="768" xmlns="http://www.w3.org/2000/svg" xmlns:xlink="http://www.w3.org/1999/xlink" version="1.1"><rect x="0" y="0" width="1450" height="768" fill="#FFFFFF"></rect><defs><linearGradient id="grad1_0" x1="47%" y1="0%" x2="100%" y2="100%"><stop offset="12.239583333333334%" stop-color="#ffffff" stop-opacity="1"></stop><stop offset="87.76041666666667%" stop-color="#ffffff" stop-opacity="1"></stop></linearGradient></defs><defs><linearGradient id="grad2_0" x1="0%" y1="0%" x2="53%" y2="100%"><stop offset="12.239583333333334%" stop-color="#ffffff" stop-opacity="1"></stop><stop offset="87.76041666666667%" stop-color="#ffffff" stop-opacity="1"></stop></linearGradient></defs><g transform="translate(1450, 0)"><path d="M0 384C-45.7 367.3 -91.4 350.6 -138.5 334.4C-185.7 318.3 -234.4 302.8 -271.5 271.5C-308.7 240.3 -334.3 193.3 -351.1 145.4C-367.9 97.5 -375.9 48.8 -384 0L0 0Z" fill="#b0a4da"></path></g><g transform="translate(0, 768)"><path d="M0 -384C45.9 -367.8 91.8 -351.6 138.9 -335.4C186.1 -319.2 234.5 -303 271.5 -271.5C308.6 -240 334.2 -193.2 351.1 -145.4C367.9 -97.6 376 -48.8 384 0L0 0Z" fill="#b0a4da"></path></g></svg>